<?xml version="1.0" encoding="UTF-8"?>
<svg width="600px" height="800px" viewBox="0 0 600 800" version="1.1" xmlns="http://www.w3.org/2000/svg" xmlns:xlink="http://www.w3.org/1999/xlink">
    <!-- Generator: Sketch 48.2 (47327) - http://www.bohemiancoding.com/sketch -->
    <title>Small</title>
    <desc>Created with Sketch.</desc>
    <defs></defs>
    <g id="Page-1" stroke="none" stroke-width="1" fill="none" fill-rule="evenodd">
        <g id="Small">
            <g id="senses" transform="translate(197.000000, 705.000000)">
                <text font-family="HelveticaNeue, Helvetica Neue" font-size="48" font-weight="normal" fill="#000000">
                    <tspan x="26.38" y="48">senses</tspan>
                </text>
                <rect id="Rectangle-2" stroke="#000000" stroke-width="5" x="2.5" y="2.5" width="201" height="63"></rect>
            </g>
            <g id="layer-2" transform="translate(299.500000, 294.500000) scale(1, -1) rotate(90.000000) translate(-299.500000, -294.500000) translate(197.000000, 142.000000)">
                <rect id="Rectangle-3" fill="#D8D8D8" x="3" y="3" width="199" height="299"></rect>
                <g id="z-shape" transform="translate(52.500000, 178.000000) rotate(90.000000) translate(-52.500000, -178.000000) translate(-24.500000, 125.500000)" fill="#A3ACC9">
                    <polygon id="Combined-Shape" points="104.322581 0 104.322581 50 154 50 154 105 49.6774194 105 49.6774194 55 0 55 0 0"></polygon>
                </g>
                <path d="M5,5 L5,50 L50,50 L50,5 L5,5 Z M5,0 L201.25,0 L205,0 L205,2.5 L205,302.5 L205,305 L200,305 L5,305 L-1.42108547e-14,305 L5.93414207e-14,302.5 L-1.36557432e-14,2.5 L-1.42108547e-14,0 L5,0 Z M200,5 L155,5 L155,50 L200,50 L200,5 Z M150,5 L105,5 L105,50 L150,50 L150,5 Z M100,5 L55,5 L55,50 L100,50 L100,5 Z M5,55 L5,101 L50,101 L50,55 L5,55 Z M200,55 L155,55 L155,101 L200,101 L200,55 Z M150,55 L105,55 L105,101 L150,101 L150,55 Z M100,55 L55,55 L55,101 L100,101 L100,55 Z M5,106 L5,150 L50,150 L50,106 L5,106 Z M200,106 L155,106 L155,150 L200,150 L200,106 Z M150,106 L105,106 L105,150 L150,150 L150,106 Z M100,106 L55,106 L55,150 L100,150 L100,106 Z M5,155 L5,200 L50,200 L50,155 L5,155 Z M200,155 L155,155 L155,200 L200,200 L200,155 Z M150,155 L105,155 L105,200 L150,200 L150,155 Z M100,155 L55,155 L55,200 L100,200 L100,155 Z M5,205 L5,250 L50,250 L50,205 L5,205 Z M200,205 L155,205 L155,250 L200,250 L200,205 Z M150,205 L105,205 L105,250 L150,250 L150,205 Z M100,205 L55,205 L55,250 L100,250 L100,205 Z M50,255 L5,255 L5,300 L50,300 L50,255 Z M155,255 L155,300 L200,300 L200,255 L155,255 Z M105,255 L105,300 L150,300 L150,255 L105,255 Z M55,255 L55,300 L100,300 L100,255 L55,255 Z" id="grid" fill="#4A4A4A"></path>
            </g>
            <g id="layer-2-copy" transform="translate(299.500000, 38.500000) rotate(90.000000) translate(-299.500000, -38.500000) translate(197.000000, -114.000000)">
                <rect id="Rectangle-3" fill="#D8D8D8" x="3" y="3" width="199" height="299"></rect>
                <g id="z-shape" transform="translate(52.500000, 178.000000) rotate(90.000000) translate(-52.500000, -178.000000) translate(-24.500000, 125.500000)" fill="#A3ACC9">
                    <polygon id="Combined-Shape" points="104.322581 0 104.322581 50 154 50 154 105 49.6774194 105 49.6774194 55 0 55 0 0"></polygon>
                </g>
                <path d="M5,5 L5,50 L50,50 L50,5 L5,5 Z M5,0 L201.25,0 L205,0 L205,2.5 L205,302.5 L205,305 L200,305 L5,305 L-1.42108547e-14,305 L5.93414207e-14,302.5 L-1.36557432e-14,2.5 L-1.42108547e-14,0 L5,0 Z M200,5 L155,5 L155,50 L200,50 L200,5 Z M150,5 L105,5 L105,50 L150,50 L150,5 Z M100,5 L55,5 L55,50 L100,50 L100,5 Z M5,55 L5,101 L50,101 L50,55 L5,55 Z M200,55 L155,55 L155,101 L200,101 L200,55 Z M150,55 L105,55 L105,101 L150,101 L150,55 Z M100,55 L55,55 L55,101 L100,101 L100,55 Z M5,106 L5,150 L50,150 L50,106 L5,106 Z M200,106 L155,106 L155,150 L200,150 L200,106 Z M150,106 L105,106 L105,150 L150,150 L150,106 Z M100,106 L55,106 L55,150 L100,150 L100,106 Z M5,155 L5,200 L50,200 L50,155 L5,155 Z M200,155 L155,155 L155,200 L200,200 L200,155 Z M150,155 L105,155 L105,200 L150,200 L150,155 Z M100,155 L55,155 L55,200 L100,200 L100,155 Z M5,205 L5,250 L50,250 L50,205 L5,205 Z M200,205 L155,205 L155,250 L200,250 L200,205 Z M150,205 L105,205 L105,250 L150,250 L150,205 Z M100,205 L55,205 L55,250 L100,250 L100,205 Z M50,255 L5,255 L5,300 L50,300 L50,255 Z M155,255 L155,300 L200,300 L200,255 L155,255 Z M105,255 L105,300 L150,300 L150,255 L105,255 Z M55,255 L55,300 L100,300 L100,255 L55,255 Z" id="grid" fill="#4A4A4A"></path>
            </g>
            <g id="layer-1" transform="translate(299.500000, 551.500000) rotate(90.000000) translate(-299.500000, -551.500000) translate(197.000000, 399.000000)">
                <rect id="Rectangle-3" fill="#D8D8D8" x="3" y="3" width="199" height="299"></rect>
                <path d="M5,5 L5,50 L50,50 L50,5 L5,5 Z M5,0 L201.25,0 L205,0 L205,2.5 L205,302.5 L205,305 L200,305 L5,305 L-1.42108547e-14,305 L5.93414207e-14,302.5 L-1.36557432e-14,2.5 L-1.42108547e-14,0 L5,0 Z M200,5 L155,5 L155,50 L200,50 L200,5 Z M150,5 L105,5 L105,50 L150,50 L150,5 Z M100,5 L55,5 L55,50 L100,50 L100,5 Z M5,55 L5,101 L50,101 L50,55 L5,55 Z M200,55 L155,55 L155,101 L200,101 L200,55 Z M150,55 L105,55 L105,101 L150,101 L150,55 Z M100,55 L55,55 L55,101 L100,101 L100,55 Z M5,106 L5,150 L50,150 L50,106 L5,106 Z M200,106 L155,106 L155,150 L200,150 L200,106 Z M150,106 L105,106 L105,150 L150,150 L150,106 Z M100,106 L55,106 L55,150 L100,150 L100,106 Z M5,155 L5,200 L50,200 L50,155 L5,155 Z M200,155 L155,155 L155,200 L200,200 L200,155 Z M150,155 L105,155 L105,200 L150,200 L150,155 Z M100,155 L55,155 L55,200 L100,200 L100,155 Z M5,205 L5,250 L50,250 L50,205 L5,205 Z M200,205 L155,205 L155,250 L200,250 L200,205 Z M150,205 L105,205 L105,250 L150,250 L150,205 Z M100,205 L55,205 L55,250 L100,250 L100,205 Z M50,255 L5,255 L5,300 L50,300 L50,255 Z M155,255 L155,300 L200,300 L200,255 L155,255 Z M105,255 L105,300 L150,300 L150,255 L105,255 Z M55,255 L55,300 L100,300 L100,255 L55,255 Z" id="grid" fill="#4A4A4A"></path>
                <g id="line-shape" transform="translate(27.500000, 102.500000) rotate(90.000000) translate(-27.500000, -102.500000) translate(-75.000000, 75.000000)">
                    <polygon id="Combined-Shape" fill="#AED1AC" points="0 0 205 0 205 55 0 55"></polygon>
                    <path d="M4.4408921e-14,0 L5,0 L50,0 L55,0 L100,0 L105,0 L150,0 L155,0 L200,0 L205,0 L205,52.5 L205,55 L200,55 L5,55 L-1.42108547e-14,55 L5.93414207e-14,52.5 L4.6566917e-14,2.84217094e-14 Z M50,5 L5,5 L5,50 L50,50 L50,5 Z M155,5 L155,50 L200,50 L200,5 L155,5 Z M105,5 L105,50 L150,50 L150,5 L105,5 Z M55,5 L55,50 L100,50 L100,5 L55,5 Z" id="Combined-Shape" fill="#4A4A4A"></path>
                </g>
                <g id="z-shape" transform="translate(50.000000, 200.000000)">
                    <polygon id="Combined-Shape" fill="#A3ACC9" points="105 0 105 50 155 50 155 105 50 105 50 55 0 55 0 0"></polygon>
                    <path d="M105,-8.8817842e-16 L105,5 L105,50 L150,50 L155,50 L155,55 L155,100 L155,105 L50,105 L50,100 L50,55 L5,55 L4.79616347e-14,55 L3.4400723e-14,0 L5,0 L50,0 L55,0 L100,0 L105,0 Z M5,5 L5,50 L50,50 L50,5 L5,5 Z M100,5 L55,5 L55,50 L100,50 L100,5 Z M105,55 L105,100 L150,100 L150,55 L105,55 Z M55,55 L55,100 L100,100 L100,55 L55,55 Z" id="Combined-Shape" fill="#4A4A4A"></path>
                </g>
                <g id="t-shape" transform="translate(152.500000, 177.500000) rotate(270.000000) translate(-152.500000, -177.500000) translate(75.000000, 125.000000)">
                    <polygon id="Combined-Shape" fill="#FFCDCD" points="155 105 0 105 6.07777717e-14 50 5 50 50 50 50 0 105 0 105 50 155 50"></polygon>
                    <path d="M155,105 L0,105 L6.07777717e-14,50 L5,50 L50,50 L50,0 L105,0 L105,50 L155,50 L155,105 Z M100,5 L55,5 L55,50 L100,50 L100,5 Z M50,55 L5,55 L5,100 L50,100 L50,55 Z M105,55 L105,100 L150,100 L150,55 L105,55 Z M55,55 L55,100 L100,100 L100,55 L55,55 Z" id="Combined-Shape" fill="#4A4A4A"></path>
                </g>
            </g>
            <polygon id="Triangle" fill="#4A4A4A" points="299.5 412 375 435 224 435"></polygon>
            <polygon id="Triangle-Copy" fill="#4A4A4A" points="299.5 155 375 178 224 178"></polygon>
            <polygon id="Triangle-Copy-2" fill="#4A4A4A" points="299.5 668 375 691 224 691"></polygon>
        </g>
    </g>
</svg>